<!--?xml version="1.0" standalone="no"?-->

<svg version="1.0" xmlns="http://www.w3.org/2000/svg" width="231.000000pt" height="300.000000pt" viewBox="0 0 231.000000 300.000000" preserveAspectRatio="xMidYMid meet">
<g transform="translate(0.000000,300.000000) scale(0.100000,-0.100000)" fill="#082D08" stroke="none">
<path class="node" id="node1" d="M1121 2806 l-34 -64 -69 -7 c-37 -4 -71 -11 -74 -17 -4 -5 11 -24 32
-41 71 -58 74 -63 64 -99 -4 -18 -11 -50 -15 -72 -6 -35 -5 -38 12 -31 50 21
53 19 53 -23 0 -23 -3 -43 -8 -46 -4 -2 -26 0 -48 6 -73 20 -154 -14 -154 -63
0 -29 55 -77 96 -85 19 -3 34 -11 34 -16 0 -6 -8 -7 -17 -3 -10 4 -39 10 -66
13 -89 9 -177 -44 -177 -109 0 -36 43 -87 94 -110 l41 -18 -59 0 c-79 -1 -128
-17 -176 -58 -83 -72 -51 -181 69 -234 17 -8 31 -17 31 -20 0 -3 -29 -9 -64
-11 -122 -10 -226 -94 -226 -182 0 -58 27 -105 85 -148 57 -43 63 -62 20 -66
-250 -21 -408 -167 -355 -328 32 -96 186 -201 330 -223 180 -29 386 11 509 98
16 12 32 21 35 21 3 0 6 -69 6 -152 l0 -153 -79 -81 c-78 -81 -136 -175 -129
-210 2 -10 17 -26 34 -36 82 -48 404 -50 496 -2 28 15 30 19 26 58 -6 54 -66
144 -142 214 l-56 51 0 155 c0 86 3 156 6 156 3 0 20 -11 37 -24 47 -36 177
-84 260 -97 87 -14 231 -6 307 17 249 73 351 266 217 411 -62 68 -152 108
-269 121 -79 9 -84 26 -20 68 147 96 110 258 -71 318 -26 9 -66 16 -87 16 -51
0 -51 12 0 35 23 10 54 34 70 52 24 27 30 43 30 82 0 88 -69 140 -200 151
l-75 6 40 17 c79 36 106 81 81 140 -25 60 -144 96 -220 67 -14 -5 -26 -6 -26
-1 0 5 14 11 31 15 39 7 85 40 91 64 14 52 -45 97 -116 89 -22 -3 -50 -7 -61
-9 -17 -3 -20 3 -23 45 -3 52 7 59 47 30 l24 -16 -6 34 c-23 127 -26 116 39
174 l59 53 -70 7 c-38 3 -76 8 -83 11 -7 2 -29 31 -50 64 -20 33 -39 60 -42
60 -3 0 -20 -29 -39 -64z m64 -35 c21 -41 53 -61 97 -61 21 0 38 -4 38 -9 0
-5 -17 -23 -37 -40 l-37 -30 11 -48 c6 -26 10 -49 9 -50 -1 -2 -21 6 -44 17
-51 25 -53 25 -104 0 -23 -11 -44 -20 -46 -20 -3 0 -2 22 2 48 6 45 4 50 -29
82 -19 19 -35 38 -35 42 0 4 17 8 38 8 46 0 75 19 92 60 16 38 25 38 45 1z"></path>
</g>
<g transform="translate(0.000000,300.000000) scale(0.100000,-0.100000)" fill="#A6A7A3" stroke="none">

<path class="node" id="node3" d="M1140 2770 c-17 -41 -46 -60 -92 -60 -21 0 -38 -4 -38 -8 0 -4 16
-23 35 -42 33 -32 35 -37 29 -82 -4 -26 -5 -48 -2 -48 2 0 23 9 46 20 51 25
53 25 104 0 23 -11 43 -19 44 -17 1 1 -3 24 -9 50 l-11 48 37 30 c20 17 37 35
37 40 0 5 -17 9 -38 9 -44 0 -76 20 -97 61 -20 37 -29 37 -45 -1z"></path>
</g>
</svg>