<!--?xml version="1.0" standalone="no"?-->

<svg version="1.0" xmlns="http://www.w3.org/2000/svg"  viewBox="0 0 300.000000 156.000000" preserveAspectRatio="xMidYMid meet">
<g transform="translate(0.000000,156.000000) scale(0.100000,-0.100000)" fill="#0C0C0C" stroke="none">
<path class="node" id="node1" d="M2150 1431 l-35 -6 3 -85 c9 -320 24 -687 27 -696 2 -9 19 -8 62 0
l58 12 -3 86 c-2 79 10 149 25 134 3 -3 21 -47 39 -98 l32 -93 63 3 c35 1 66
5 71 10 4 4 -23 73 -59 154 l-66 147 49 116 c26 63 51 112 55 107 3 -4 39
-116 78 -249 50 -167 71 -249 66 -265 -11 -34 -63 -106 -85 -118 -19 -10 -19
-11 2 -68 12 -31 23 -59 25 -61 2 -3 23 15 47 38 49 48 94 134 121 231 17 65
115 583 111 588 -4 4 -109 -18 -115 -23 -5 -6 -39 -312 -40 -364 -2 -45 -10
-15 -46 159 -19 95 -37 176 -40 179 -5 4 -244 -35 -251 -41 -1 -2 -21 -59 -42
-127 l-39 -123 -7 48 c-3 26 -6 92 -6 148 0 56 -3 138 -7 184 -7 91 -4 89 -93
73z"></path>

<path class="node" id="node3" d="M1844 1146 c-50 -16 -104 -47 -104 -59 0 -6 5 -27 12 -48 l11 -39 31
19 c52 32 92 35 115 12 12 -12 21 -31 21 -44 0 -18 -10 -26 -52 -41 -64 -22
-132 -89 -147 -143 -33 -117 15 -233 95 -233 45 0 72 14 106 54 25 29 27 29
28 9 0 -30 8 -33 66 -21 40 8 51 14 48 27 -2 9 -8 104 -13 211 -9 204 -18 247
-60 284 -27 24 -103 30 -157 12z m96 -345 c0 -59 -4 -74 -23 -97 -29 -34 -61
-26 -76 18 -16 46 2 101 42 127 52 33 57 29 57 -48z"></path>
<path class="node" id="node4" d="M1535 1094 c-5 -1 -22 -5 -37 -8 -39 -9 -95 -62 -123 -116 -71 -141
-48 -364 46 -431 42 -30 120 -31 194 -2 l50 19 -2 48 c-1 26 -4 50 -7 53 -3 3
-23 -2 -46 -11 -52 -21 -92 -20 -119 2 -22 17 -45 78 -33 86 4 2 48 11 97 20
154 28 139 16 132 104 -6 97 -23 153 -56 192 -24 28 -72 50 -96 44z m14 -128
c6 -7 14 -34 17 -59 l6 -45 -53 -9 c-30 -5 -58 -6 -63 -2 -10 9 10 97 26 116
14 17 53 17 67 -1z"></path>
<path class="node" id="node5" d="M266 1076 c-89 -33 -148 -125 -149 -236 -2 -94 27 -140 123 -205 101
-68 120 -108 80 -173 -25 -41 -60 -54 -128 -50 -51 3 -52 2 -57 -27 -13 -91
-13 -95 13 -102 44 -11 130 5 184 34 93 50 144 169 120 280 -14 67 -50 116
-110 152 -83 48 -106 74 -105 117 1 30 8 45 33 67 28 25 39 28 81 25 l49 -3 6
41 c11 78 5 89 -51 91 -27 2 -67 -4 -89 -11z"></path>
<path class="node" id="node6" d="M1200 1026 c-52 -11 -55 -13 -54 -41 1 -17 3 -109 5 -207 4 -162 2
-178 -15 -197 -25 -27 -52 -27 -67 2 -11 20 -27 217 -28 358 l-1 56 -57 -11
-58 -12 2 -203 c3 -297 24 -350 130 -338 38 4 54 12 80 41 18 20 35 36 38 36
3 0 5 -12 5 -26 0 -24 1 -25 48 -18 26 3 50 9 53 13 8 7 -12 561 -20 560 -3
-1 -31 -7 -61 -13z"></path>
<path class="node" id="node7" d="M805 953 c-11 -2 -30 -6 -42 -9 -17 -3 -23 -11 -23 -31 l0 -26 -23
21 c-27 26 -75 29 -117 7 -95 -49 -139 -300 -80 -459 42 -110 123 -136 192
-61 l25 26 7 -127 c3 -70 8 -129 9 -131 6 -6 109 15 116 23 4 5 2 155 -5 334
-7 179 -13 351 -13 383 -1 58 -2 60 -46 50z m-99 -147 c17 -13 19 -29 22 -148
3 -119 1 -137 -15 -157 -24 -29 -55 -22 -73 17 -16 34 -25 155 -16 217 7 42
34 85 54 85 5 0 17 -6 28 -14z"></path>
<path class="node" id="node8" d="M2350 469 c0 -6 -9 -8 -20 -4 -18 6 -20 2 -20 -49 0 -43 3 -56 15
-56 11 0 15 11 15 40 0 27 5 43 15 46 17 7 21 34 5 34 -5 0 -10 -5 -10 -11z"></path>
<path class="node" id="node9" d="M2212 448 c-24 -12 -36 -42 -30 -79 3 -26 32 -35 74 -25 35 9 30 24
-7 22 -18 0 -34 5 -36 12 -3 7 4 12 15 12 48 0 68 30 40 58 -14 14 -25 14 -56
0z m35 -25 c2 -6 -5 -13 -17 -16 -12 -3 -20 0 -20 7 0 26 29 33 37 9z"></path>
<path class="node" id="node10" d="M2073 423 c-21 -4 -23 -10 -23 -59 0 -41 4 -54 15 -54 11 0 15 12 15
44 0 28 5 46 14 49 20 8 26 -2 26 -45 0 -30 4 -39 16 -36 8 2 15 6 15 11 -1 4
-1 27 -1 52 0 43 -1 45 -27 44 -16 -1 -38 -4 -50 -6z"></path>
<path class="node" id="node11" d="M1747 413 c-4 -3 -7 -42 -7 -85 0 -63 3 -78 15 -78 12 0 15 16 15 85
0 78 -5 96 -23 78z"></path>
<path class="node" id="node12" d="M1953 400 c-13 -5 -23 -14 -23 -20 0 -7 7 -7 21 1 14 7 24 8 31 1 7
-7 -1 -15 -26 -26 -28 -12 -36 -21 -36 -40 0 -28 11 -31 69 -20 29 6 31 9 31
48 0 60 -19 75 -67 56z m35 -67 c-4 -22 -38 -30 -38 -10 0 14 13 24 33 26 5 1
7 -7 5 -16z"></path>
<path class="node" id="node13" d="M1654 384 c-53 -26 -71 -97 -34 -134 21 -21 39 -24 78 -14 33 9 29
35 -5 28 -38 -6 -56 8 -56 45 0 38 15 57 53 65 32 6 42 26 13 26 -10 0 -32 -7
-49 -16z"></path>
<path class="node" id="node14" d="M1845 380 c-32 -12 -47 -36 -43 -72 2 -26 8 -34 27 -36 32 -5 73 7
66 18 -4 6 -17 7 -30 4 -12 -3 -26 -1 -30 5 -6 11 0 15 47 25 20 5 25 10 21
26 -7 27 -33 40 -58 30z m25 -31 c0 -5 -9 -9 -20 -9 -22 0 -27 16 -7 23 15 5
27 -1 27 -14z"></path>
<path class="node" id="node15" d="M1477 302 c-24 -26 -21 -41 9 -52 28 -11 24 -30 -7 -30 -10 0 -19 -4
-19 -10 0 -5 9 -10 21 -10 56 0 81 52 33 70 -26 10 -25 30 2 30 8 0 14 5 14
10 0 17 -36 11 -53 -8z"></path>
<path class="node" id="node16" d="M1187 303 c-2 -5 -5 -41 -6 -80 -2 -59 1 -73 12 -73 11 0 16 15 19
58 1 31 2 67 0 80 -3 21 -17 29 -25 15z"></path>
<path class="node" id="node17" d="M1376 284 c-23 -23 -20 -43 9 -54 14 -5 25 -14 25 -20 0 -5 -11 -10
-25 -10 -14 0 -25 -4 -25 -10 0 -13 36 -13 61 0 29 16 25 56 -6 64 -29 7 -24
26 6 26 10 0 19 5 19 10 0 16 -47 12 -64 -6z"></path>
<path class="node" id="node18" d="M1068 274 c-34 -18 -48 -43 -48 -86 0 -44 15 -58 63 -58 57 0 77 14
77 55 0 32 -2 35 -30 35 -20 0 -30 -5 -30 -15 0 -8 7 -15 16 -15 25 0 12 -35
-16 -38 -26 -4 -50 20 -50 50 0 28 37 58 70 58 20 0 30 5 30 15 0 20 -46 19
-82 -1z"></path>
<path class="node" id="node19" d="M1263 273 c-24 -9 -13 -25 12 -19 34 9 32 -10 -2 -26 -19 -9 -29 -22
-31 -42 -4 -28 -3 -29 35 -23 21 4 44 7 51 7 16 0 16 82 0 98 -12 12 -43 15
-65 5z m37 -67 c0 -16 -18 -31 -27 -22 -8 8 5 36 17 36 5 0 10 -6 10 -14z"></path>
</g>
<g transform="translate(0.000000,156.000000) scale(0.100000,-0.100000)" fill="#A2A2A2" stroke="none">








</g>
</svg>